{
  "asset": {
    "version": "2.0",
    "generator": "THREE.GLTFExporter"
  },
  "scenes": [
    {
      "nodes": [
        0
      ]
    }
  ],
  "scene": 0,
  "nodes": [
    {
      "children": [
        4
      ],
      "matrix": [
        0.01,
        0,
        0,
        0,
        0,
        0.01,
        0,
        0,
        0,
        0,
        0.01,
        0,
        0,
        0,
        0,
        1
      ]
    },
    {
      "matrix": [
        1,
        0,
        0,
        0,
        0,
        1.077922077922078,
        0,
        0,
        0,
        0,
        1,
        0,
        22.499999999999886,
        74.49567823627234,
        -89.49999999999999,
        1
      ],
      "name": "Icosahedron",
      "mesh": 0
    },
    {
      "matrix": [
        -2.220446049250313e-16,
        0,
        1,
        0,
        6.123233995736765e-17,
        1,
        1.232595164407831e-32,
        0,
        -1,
        6.123233995736765e-17,
        -2.220446049250313e-16,
        0,
        -1000.0000000000005,
        2.8860601540059973e-13,
        -1.1052057801186016e-12,
        1
      ],
      "name": "Personal Camera",
      "camera": 0
    },
    {
      "matrix": [
        1,
        0,
        0,
        0,
        0,
        1,
        0,
        0,
        0,
        0,
        1,
        0,
        0,
        1,
        0,
        1
      ],
      "name": "Default Ambient Light"
    },
    {
      "name": "Scene 1",
      "children": [
        1,
        2,
        3
      ]
    }
  ],
  "bufferViews": [
    {
      "buffer": 0,
      "byteOffset": 0,
      "byteLength": 720,
      "target": 34962,
      "byteStride": 12
    },
    {
      "buffer": 0,
      "byteOffset": 720,
      "byteLength": 720,
      "target": 34962,
      "byteStride": 12
    },
    {
      "buffer": 0,
      "byteOffset": 1440,
      "byteLength": 480,
      "target": 34962,
      "byteStride": 8
    }
  ],
  "buffers": [
    {
      "byteLength": 1920,
      "uri": "data:application/octet-stream;base64,"
    }
  ],
  "accessors": [
    {
      "bufferView": 0,
      "componentType": 5126,
      "count": 60,
      "max": [
        212.66270446777344,
        212.66270446777344,
        212.66270446777344
      ],
      "min": [
        -212.66270446777344,
        -212.66270446777344,
        -212.66270446777344
      ],
      "type": "VEC3"
    },
    {
      "bufferView": 1,
      "componentType": 5126,
      "count": 60,
      "max": [
        0.9341723918914795,
        0.9341723918914795,
        0.9341723918914795
      ],
      "min": [
        -0.9341723918914795,
        -0.9341723918914795,
        -0.9341723918914795
      ],
      "type": "VEC3"
    },
    {
      "bufferView": 2,
      "componentType": 5126,
      "count": 60,
      "max": [
        1.0881041288375854,
        0.8237918019294739
      ],
      "min": [
        0,
        0.17620819807052612
      ],
      "type": "VEC2"
    }
  ],
  "meshes": [
    {
      "primitives": [
        {
          "mode": 4,
          "attributes": {
            "POSITION": 0,
            "NORMAL": 1,
            "TEXCOORD_0": 2
          },
          "extras": {
            "parameters": {
              "width": 500,
              "detail": 0,
              "corner": 0,
              "cornerSides": 4,
              "height": 500,
              "depth": 500,
              "type": "IcosahedronGeometry"
            },
            "type": "IcosahedronGeometry"
          }
        }
      ]
    }
  ],
  "cameras": [
    {
      "type": "orthographic",
      "orthographic": {
        "xmag": 9.6,
        "ymag": 4.765,
        "zfar": 100000,
        "znear": 0
      },
      "name": "Camera"
    }
  ]
}